<svg id="visual" viewBox="0 0 1920 1080" width="1920" height="1080" xmlns="http://www.w3.org/2000/svg" xmlns:xlink="http://www.w3.org/1999/xlink" version="1.1"><rect x="0" y="0" width="1920" height="1080" fill="#001220"></rect><path d="M0 701L45.7 701.3C91.3 701.7 182.7 702.3 274.2 701.2C365.7 700 457.3 697 548.8 697.8C640.3 698.7 731.7 703.3 823 687.8C914.3 672.3 1005.7 636.7 1097 641.7C1188.3 646.7 1279.7 692.3 1371.2 684.2C1462.7 676 1554.3 614 1645.8 591.8C1737.3 569.7 1828.7 587.3 1874.3 596.2L1920 605L1920 1081L1874.3 1081C1828.7 1081 1737.3 1081 1645.8 1081C1554.3 1081 1462.7 1081 1371.2 1081C1279.7 1081 1188.3 1081 1097 1081C1005.7 1081 914.3 1081 823 1081C731.7 1081 640.3 1081 548.8 1081C457.3 1081 365.7 1081 274.2 1081C182.7 1081 91.3 1081 45.7 1081L0 1081Z" fill="#4facf7"></path><path d="M0 712L45.7 705.3C91.3 698.7 182.7 685.3 274.2 679.8C365.7 674.3 457.3 676.7 548.8 685.8C640.3 695 731.7 711 823 717.5C914.3 724 1005.7 721 1097 707.3C1188.3 693.7 1279.7 669.3 1371.2 664.7C1462.7 660 1554.3 675 1645.8 684.5C1737.3 694 1828.7 698 1874.3 700L1920 702L1920 1081L1874.3 1081C1828.7 1081 1737.3 1081 1645.8 1081C1554.3 1081 1462.7 1081 1371.2 1081C1279.7 1081 1188.3 1081 1097 1081C1005.7 1081 914.3 1081 823 1081C731.7 1081 640.3 1081 548.8 1081C457.3 1081 365.7 1081 274.2 1081C182.7 1081 91.3 1081 45.7 1081L0 1081Z" fill="#2f9ffb"></path><path d="M0 783L45.7 785.5C91.3 788 182.7 793 274.2 781.3C365.7 769.7 457.3 741.3 548.8 721.8C640.3 702.3 731.7 691.7 823 706.2C914.3 720.7 1005.7 760.3 1097 769.7C1188.3 779 1279.7 758 1371.2 758.2C1462.7 758.3 1554.3 779.7 1645.8 775C1737.3 770.3 1828.7 739.7 1874.3 724.3L1920 709L1920 1081L1874.3 1081C1828.7 1081 1737.3 1081 1645.8 1081C1554.3 1081 1462.7 1081 1371.2 1081C1279.7 1081 1188.3 1081 1097 1081C1005.7 1081 914.3 1081 823 1081C731.7 1081 640.3 1081 548.8 1081C457.3 1081 365.7 1081 274.2 1081C182.7 1081 91.3 1081 45.7 1081L0 1081Z" fill="#0591ff"></path><path d="M0 876L45.7 851.7C91.3 827.3 182.7 778.7 274.2 769.3C365.7 760 457.3 790 548.8 799.5C640.3 809 731.7 798 823 797.8C914.3 797.7 1005.7 808.3 1097 822.3C1188.3 836.3 1279.7 853.7 1371.2 844.2C1462.7 834.7 1554.3 798.3 1645.8 798C1737.3 797.7 1828.7 833.3 1874.3 851.2L1920 869L1920 1081L1874.3 1081C1828.7 1081 1737.3 1081 1645.8 1081C1554.3 1081 1462.7 1081 1371.2 1081C1279.7 1081 1188.3 1081 1097 1081C1005.7 1081 914.3 1081 823 1081C731.7 1081 640.3 1081 548.8 1081C457.3 1081 365.7 1081 274.2 1081C182.7 1081 91.3 1081 45.7 1081L0 1081Z" fill="#0081ff"></path><path d="M0 855L45.7 862.8C91.3 870.7 182.7 886.3 274.2 892.3C365.7 898.3 457.3 894.7 548.8 878.8C640.3 863 731.7 835 823 839.8C914.3 844.7 1005.7 882.3 1097 897.8C1188.3 913.3 1279.7 906.7 1371.2 891.3C1462.7 876 1554.3 852 1645.8 851.2C1737.3 850.3 1828.7 872.7 1874.3 883.8L1920 895L1920 1081L1874.3 1081C1828.7 1081 1737.3 1081 1645.8 1081C1554.3 1081 1462.7 1081 1371.2 1081C1279.7 1081 1188.3 1081 1097 1081C1005.7 1081 914.3 1081 823 1081C731.7 1081 640.3 1081 548.8 1081C457.3 1081 365.7 1081 274.2 1081C182.7 1081 91.3 1081 45.7 1081L0 1081Z" fill="#0070ff"></path><path d="M0 857L45.7 866.5C91.3 876 182.7 895 274.2 895.5C365.7 896 457.3 878 548.8 879.3C640.3 880.7 731.7 901.3 823 913.3C914.3 925.3 1005.7 928.7 1097 923.3C1188.3 918 1279.7 904 1371.2 890.8C1462.7 877.7 1554.3 865.3 1645.8 873.2C1737.3 881 1828.7 909 1874.3 923L1920 937L1920 1081L1874.3 1081C1828.7 1081 1737.3 1081 1645.8 1081C1554.3 1081 1462.7 1081 1371.2 1081C1279.7 1081 1188.3 1081 1097 1081C1005.7 1081 914.3 1081 823 1081C731.7 1081 640.3 1081 548.8 1081C457.3 1081 365.7 1081 274.2 1081C182.7 1081 91.3 1081 45.7 1081L0 1081Z" fill="#1d5cff"></path><path d="M0 976L45.7 966C91.3 956 182.7 936 274.2 939.5C365.7 943 457.3 970 548.8 983.3C640.3 996.7 731.7 996.3 823 982.5C914.3 968.7 1005.7 941.3 1097 936.8C1188.3 932.3 1279.7 950.7 1371.2 958.3C1462.7 966 1554.3 963 1645.8 961.7C1737.3 960.3 1828.7 960.7 1874.3 960.8L1920 961L1920 1081L1874.3 1081C1828.7 1081 1737.3 1081 1645.8 1081C1554.3 1081 1462.7 1081 1371.2 1081C1279.7 1081 1188.3 1081 1097 1081C1005.7 1081 914.3 1081 823 1081C731.7 1081 640.3 1081 548.8 1081C457.3 1081 365.7 1081 274.2 1081C182.7 1081 91.3 1081 45.7 1081L0 1081Z" fill="#4441ff"></path><path d="M0 1002L45.7 1001.3C91.3 1000.7 182.7 999.3 274.2 996.2C365.7 993 457.3 988 548.8 991.3C640.3 994.7 731.7 1006.3 823 1009.5C914.3 1012.7 1005.7 1007.3 1097 1001.7C1188.3 996 1279.7 990 1371.2 986.8C1462.7 983.7 1554.3 983.3 1645.8 984.5C1737.3 985.7 1828.7 988.3 1874.3 989.7L1920 991L1920 1081L1874.3 1081C1828.7 1081 1737.3 1081 1645.8 1081C1554.3 1081 1462.7 1081 1371.2 1081C1279.7 1081 1188.3 1081 1097 1081C1005.7 1081 914.3 1081 823 1081C731.7 1081 640.3 1081 548.8 1081C457.3 1081 365.7 1081 274.2 1081C182.7 1081 91.3 1081 45.7 1081L0 1081Z" fill="#6600ff"></path></svg>