<svg viewBox="0 0 24 24" xmlns="http://www.w3.org/2000/svg">
<path d="M4.92893 12.9289C4.59237 13.2655 4.28228 13.6236 4 13.9999V5.50285C4.00083 5.10455 4.15942 4.72277 4.44109 4.44109C4.72277 4.15942 5.10455 4.00083 5.50285 4H18.4971C18.8955 4.00083 19.2772 4.15942 19.5589 4.44109C19.8406 4.72282 19.9992 5.1047 20 5.50309C20 5.50351 20 5.50394 20 5.50436L20 13.9999C19.7177 13.6236 19.4076 13.2655 19.0711 12.9289C17.1957 11.0536 14.6522 10 12 10C9.34784 10 6.8043 11.0536 4.92893 12.9289ZM14 20L10 20C10 19.4696 10.2107 18.9609 10.5858 18.5858C10.9609 18.2107 11.4696 18 12 18C12.5304 18 13.0391 18.2107 13.4142 18.5858C13.7893 18.9609 14 19.4696 14 20Z" stroke="black" stroke-width="8"/>
<path d="M11.4766 8.3551C11.4766 8.1576 11.6509 7.88781 12 7.88781C12.3492 7.88781 12.5234 8.1576 12.5234 8.3551C12.5234 8.5526 12.3492 8.82239 12 8.82239C11.6509 8.82239 11.4766 8.5526 11.4766 8.3551Z" stroke="black" stroke-width="8"/>
</svg>

<svg width="24" height="24" viewBox="0 0 24 24" fill="none" >
<g clip-path="url(#clip0_20_4)">
<path d="M4.92893 12.9289C4.59237 13.2655 4.28228 13.6236 4 13.9999V5.50285C4.00083 5.10455 4.15942 4.72277 4.44109 4.44109C4.72277 4.15942 5.10455 4.00083 5.50285 4H18.4971C18.8955 4.00083 19.2772 4.15942 19.5589 4.44109C19.8406 4.72282 19.9992 5.1047 20 5.50309C20 5.50351 20 5.50394 20 5.50436L20 13.9999C19.7177 13.6236 19.4076 13.2655 19.0711 12.9289C17.1957 11.0536 14.6522 10 12 10C9.34784 10 6.8043 11.0536 4.92893 12.9289ZM14 20L10 20C10 19.4696 10.2107 18.9609 10.5858 18.5858C10.9609 18.2107 11.4696 18 12 18C12.5304 18 13.0391 18.2107 13.4142 18.5858C13.7893 18.9609 14 19.4696 14 20Z" stroke="black" stroke-width="8"/>
<path d="M11.4766 8.3551C11.4766 8.1576 11.6509 7.88781 12 7.88781C12.3492 7.88781 12.5234 8.1576 12.5234 8.3551C12.5234 8.5526 12.3492 8.82239 12 8.82239C11.6509 8.82239 11.4766 8.5526 11.4766 8.3551Z" stroke="black" stroke-width="8"/>
</g>
<defs>
<clipPath id="clip0_20_4">
<rect width="24" height="24" fill="white"/>
</clipPath>
</defs>
</svg>
